<mxfile host="app.diagrams.net" modified="2023-11-10T08:48:51.495Z" agent="Mozilla/5.0 (Windows NT 10.0; Win64; x64) AppleWebKit/537.36 (KHTML, like Gecko) Chrome/119.0.0.0 Safari/537.36" etag="KD8aRT25RcFHk81w2dh_" version="22.1.0" type="github">
  <diagram name="Page-1" id="rvmz9kJ0MSevizE8UUR9">
    <mxGraphModel dx="1434" dy="750" grid="1" gridSize="10" guides="1" tooltips="1" connect="1" arrows="1" fold="1" page="1" pageScale="1" pageWidth="850" pageHeight="1100" math="0" shadow="0">
      <root>
        <mxCell id="0" />
        <mxCell id="1" parent="0" />
        <mxCell id="Z1Loz1DLz0zFu6MkB3J6-14" value="" style="edgeStyle=orthogonalEdgeStyle;rounded=0;orthogonalLoop=1;jettySize=auto;html=1;" parent="1" source="Z1Loz1DLz0zFu6MkB3J6-12" target="Z1Loz1DLz0zFu6MkB3J6-13" edge="1">
          <mxGeometry relative="1" as="geometry" />
        </mxCell>
        <mxCell id="Z1Loz1DLz0zFu6MkB3J6-20" style="edgeStyle=orthogonalEdgeStyle;rounded=0;orthogonalLoop=1;jettySize=auto;html=1;" parent="1" source="Z1Loz1DLz0zFu6MkB3J6-12" target="Z1Loz1DLz0zFu6MkB3J6-17" edge="1">
          <mxGeometry relative="1" as="geometry" />
        </mxCell>
        <mxCell id="Z1Loz1DLz0zFu6MkB3J6-12" value="&lt;h1&gt;FACTURATIE&lt;/h1&gt;&lt;div&gt;ik factuur een vast bedrag per maand naar mijn werkgever.&lt;/div&gt;&lt;div&gt;&lt;ul style=&quot;border-color: var(--border-color);&quot;&gt;&lt;li style=&quot;border-color: var(--border-color);&quot;&gt;&lt;sub style=&quot;border-color: var(--border-color);&quot;&gt;Sociaal secretariaat (Acerta)&lt;/sub&gt;&lt;/li&gt;&lt;li style=&quot;border-color: var(--border-color);&quot;&gt;&lt;sub style=&quot;border-color: var(--border-color);&quot;&gt;Bruto bezoldigingen&lt;/sub&gt;&lt;/li&gt;&lt;li style=&quot;border-color: var(--border-color);&quot;&gt;&lt;sub style=&quot;border-color: var(--border-color);&quot;&gt;Bedrijfsvoorheffing&lt;/sub&gt;&lt;/li&gt;&lt;li style=&quot;border-color: var(--border-color);&quot;&gt;&lt;sub style=&quot;border-color: var(--border-color);&quot;&gt;VVA&lt;/sub&gt;&lt;/li&gt;&lt;/ul&gt;&lt;div style=&quot;border-color: var(--border-color);&quot;&gt;&lt;br style=&quot;border-color: var(--border-color);&quot;&gt;&lt;/div&gt;&lt;div style=&quot;border-color: var(--border-color);&quot;&gt;&lt;span style=&quot;border-color: var(--border-color); font-size: 10px;&quot;&gt;&lt;br style=&quot;border-color: var(--border-color);&quot;&gt;&lt;/span&gt;&lt;/div&gt;&lt;/div&gt;&lt;div&gt;&lt;br&gt;&lt;/div&gt;" style="text;html=1;strokeColor=none;fillColor=none;spacing=5;spacingTop=-20;whiteSpace=wrap;overflow=hidden;rounded=0;" parent="1" vertex="1">
          <mxGeometry x="40" y="160" width="190" height="220" as="geometry" />
        </mxCell>
        <mxCell id="Z1Loz1DLz0zFu6MkB3J6-24" value="" style="edgeStyle=orthogonalEdgeStyle;rounded=0;orthogonalLoop=1;jettySize=auto;html=1;" parent="1" source="Z1Loz1DLz0zFu6MkB3J6-13" target="Z1Loz1DLz0zFu6MkB3J6-23" edge="1">
          <mxGeometry relative="1" as="geometry" />
        </mxCell>
        <mxCell id="Z1Loz1DLz0zFu6MkB3J6-13" value="&lt;h1&gt;NETTOLOON&lt;/h1&gt;&lt;p&gt;De facturatie is een inkomensstroom uitgekeerd in een maandelijks netto bedrag.&lt;/p&gt;" style="text;html=1;strokeColor=none;fillColor=none;spacing=5;spacingTop=-20;whiteSpace=wrap;overflow=hidden;rounded=0;" parent="1" vertex="1">
          <mxGeometry x="310" y="120" width="190" height="120" as="geometry" />
        </mxCell>
        <mxCell id="Z1Loz1DLz0zFu6MkB3J6-19" style="edgeStyle=orthogonalEdgeStyle;rounded=0;orthogonalLoop=1;jettySize=auto;html=1;entryX=0;entryY=0.5;entryDx=0;entryDy=0;" parent="1" source="Z1Loz1DLz0zFu6MkB3J6-17" edge="1">
          <mxGeometry relative="1" as="geometry">
            <mxPoint x="720" y="250" as="targetPoint" />
            <Array as="points">
              <mxPoint x="610" y="350" />
              <mxPoint x="610" y="250" />
            </Array>
          </mxGeometry>
        </mxCell>
        <mxCell id="Z1Loz1DLz0zFu6MkB3J6-17" value="&lt;h1&gt;PENSIOENSPAREN&lt;/h1&gt;&lt;p&gt;&lt;/p&gt;&lt;ol&gt;&lt;li&gt;Een deel van de inkomensstroom wens ik opzij te zetten.&lt;br&gt;&lt;br&gt;&lt;/li&gt;&lt;li&gt;Ik wens te weten te komen wanneer ik op pensioen kan.&lt;/li&gt;&lt;/ol&gt;&lt;p&gt;&lt;/p&gt;&lt;p&gt;&lt;/p&gt;&lt;ul&gt;&lt;li&gt;Cfr sheet Felien (Vandelanotte)&lt;/li&gt;&lt;/ul&gt;&lt;p&gt;&lt;/p&gt;" style="text;html=1;strokeColor=none;fillColor=none;spacing=5;spacingTop=-20;whiteSpace=wrap;overflow=hidden;rounded=0;" parent="1" vertex="1">
          <mxGeometry x="310" y="290" width="240" height="160" as="geometry" />
        </mxCell>
        <mxCell id="Z1Loz1DLz0zFu6MkB3J6-23" value="&lt;h1&gt;BUDGET&lt;/h1&gt;&lt;p&gt;Een cashflowsheet die rekening houdt met&amp;nbsp;&lt;/p&gt;&lt;p&gt;&lt;/p&gt;&lt;ul&gt;&lt;li&gt;Maandelijkse kosten&lt;/li&gt;&lt;li&gt;&lt;span style=&quot;background-color: initial;&quot;&gt;&amp;nbsp;vorige inputs opneemt en rekening houdt met vaste maandelijkse kosten.&lt;/span&gt;&lt;/li&gt;&lt;/ul&gt;&lt;p&gt;&lt;/p&gt;&lt;p&gt;Finish: Ik wens te weten hoeveel ik over de volgende maanden kan uitgeven en dien bij te sparen.&lt;/p&gt;&lt;p&gt;&lt;/p&gt;&lt;ul&gt;&lt;li&gt;Sparen voor reizen,...&lt;/li&gt;&lt;li&gt;&quot;Fun&quot; uitgaven (kledij, uitgaan, huis, ..)&lt;/li&gt;&lt;/ul&gt;&lt;p&gt;&lt;/p&gt;" style="text;html=1;strokeColor=none;fillColor=none;spacing=5;spacingTop=-20;whiteSpace=wrap;overflow=hidden;rounded=0;" parent="1" vertex="1">
          <mxGeometry x="720" y="190" width="190" height="270" as="geometry" />
        </mxCell>
        <mxCell id="Z1Loz1DLz0zFu6MkB3J6-25" value="Ik wens met input parameters te kunnen spelen en zo te kijken wat de invloed is doorheen de verschillende tabs" style="rounded=0;whiteSpace=wrap;html=1;fillColor=#fff2cc;strokeColor=#d6b656;" parent="1" vertex="1">
          <mxGeometry x="50" y="430" width="180" height="100" as="geometry" />
        </mxCell>
      </root>
    </mxGraphModel>
  </diagram>
</mxfile>
